<?xml version="1.0" encoding="utf-8"?>
<!-- Generator: Adobe Illustrator 16.0.0, SVG Export Plug-In . SVG Version: 6.00 Build 0)  -->
<!DOCTYPE svg PUBLIC "-//W3C//DTD SVG 1.1//EN" "http://www.w3.org/Graphics/SVG/1.1/DTD/svg11.dtd">
<svg version="1.1" xmlns="http://www.w3.org/2000/svg" xmlns:xlink="http://www.w3.org/1999/xlink" x="0px" y="0px" width="150px"
	 height="150px" viewBox="0 0 150 150" enable-background="new 0 0 150 150" xml:space="preserve">
<g id="Layer_1">
	<g>
		<polygon fill-rule="evenodd" clip-rule="evenodd" fill="#FFFFFF" points="120.142,126.153 121.94,126.153 121.94,129.524 
			120.142,129.524 120.142,146.696 29.858,146.696 29.858,129.524 28.061,129.524 28.061,126.153 29.858,126.153 29.858,85.532 
			28.061,85.532 28.061,80.964 29.858,80.964 29.858,47.663 28.061,47.663 28.061,43.093 29.858,43.093 29.858,3.304 36.479,3.304 
			36.479,8.745 85.161,8.745 89.04,3.304 92.919,8.745 113.522,8.745 113.522,3.304 120.142,3.304 120.142,43.093 121.94,43.093 
			121.94,47.663 120.142,47.663 120.142,80.964 121.94,80.964 121.94,85.532 120.142,85.532 120.142,126.153 		"/>
		<polygon fill-rule="evenodd" clip-rule="evenodd" fill="#98D7DA" points="77.486,100.44 103.22,100.44 103.22,121.171 
			77.486,121.171 77.486,100.44 		"/>
		<polygon fill-rule="evenodd" clip-rule="evenodd" fill="#DEF6F7" points="77.486,117.702 103.249,102.819 103.249,108.249 
			80.88,121.171 77.486,121.171 77.486,117.702 		"/>
		<polygon fill-rule="evenodd" clip-rule="evenodd" fill="#98D7DA" points="113.522,129.524 115.319,129.524 115.319,126.153 
			119.222,126.153 119.222,129.524 117.423,129.524 117.423,146.696 113.522,146.696 113.522,129.524 		"/>
		<polygon fill-rule="evenodd" clip-rule="evenodd" fill="#98D7DA" points="64.559,126.153 70.54,140.364 70.54,146.696 
			64.559,146.696 64.559,126.153 		"/>
		<polygon fill-rule="evenodd" clip-rule="evenodd" fill="#98D7DA" points="58.576,24.616 64.559,38.825 64.559,43.093 
			58.576,43.093 58.576,24.616 		"/>
		<path fill-rule="evenodd" clip-rule="evenodd" fill="#98D7DA" d="M29.858,50.692h41.035v2.832H29.858V50.692L29.858,50.692z
			 M107.187,50.692h6.336v-3.029h1.797v-4.57h3.902v4.57h-1.799v3.029h2.721v2.832h-2.721v27.439h-3.9V53.524h-5.145L107.187,50.692
			L107.187,50.692z"/>
		<polygon fill-rule="evenodd" clip-rule="evenodd" fill="#98D7DA" points="29.858,88.563 113.522,88.563 113.522,85.532 
			115.319,85.532 115.319,80.964 119.22,80.964 119.22,85.532 117.423,85.532 117.423,88.563 120.142,88.563 120.142,91.396 
			117.423,91.396 117.423,126.153 113.522,126.153 113.522,91.396 29.858,91.396 29.858,88.563 		"/>
		<path fill-rule="evenodd" clip-rule="evenodd" fill="#98D7DA" d="M46.251,126.153v-25.416c1.892-2.461,4.348-3.635,6.895-3.635
			c1.484,0,2.938,0.4,4.267,1.221v27.83H46.251L46.251,126.153z"/>
		<path fill-rule="evenodd" clip-rule="evenodd" fill="#98D7DA" d="M88.269,31.587c0-1.877,1.521-3.398,3.398-3.398
			s3.398,1.521,3.398,3.398v15.08h-6.797V31.587L88.269,31.587z"/>
		<path fill="#98D7DA" d="M106.909,27.118c0,0.494-0.402,0.895-0.896,0.895s-0.895-0.4-0.895-0.895V8.745
			c0-0.494,0.4-0.895,0.895-0.895s0.896,0.4,0.896,0.895V27.118L106.909,27.118z M42.928,43.093c0,0.494-0.4,0.895-0.895,0.895
			c-0.495,0-0.896-0.4-0.896-0.895V8.745c0-0.494,0.4-0.895,0.896-0.895c0.494,0,0.895,0.4,0.895,0.895V43.093L42.928,43.093z
			 M50.437,24.616c0,0.494-0.401,0.895-0.896,0.895s-0.895-0.4-0.895-0.895V8.745c0-0.494,0.4-0.895,0.895-0.895
			s0.896,0.4,0.896,0.895V24.616L50.437,24.616z M56.154,8.745c0-0.494,0.401-0.895,0.896-0.895s0.896,0.4,0.896,0.895v15.871
			c0,0.494-0.401,0.895-0.896,0.895s-0.896-0.4-0.896-0.895V8.745L56.154,8.745z M65.453,37.651c0,0.494-0.4,0.896-0.895,0.896
			c-0.495,0-0.896-0.402-0.896-0.896V8.745c0-0.494,0.4-0.895,0.896-0.895c0.494,0,0.895,0.4,0.895,0.895V37.651L65.453,37.651z
			 M72.962,27.118c0,0.492-0.401,0.895-0.896,0.895s-0.895-0.402-0.895-0.895V8.745c0-0.494,0.4-0.895,0.895-0.895
			s0.896,0.4,0.896,0.895V27.118L72.962,27.118z M80.471,16.583c0,0.494-0.401,0.895-0.896,0.895s-0.896-0.4-0.896-0.895V8.745
			c0-0.494,0.401-0.895,0.896-0.895s0.896,0.4,0.896,0.895V16.583L80.471,16.583z M99.399,16.583c0,0.494-0.4,0.895-0.895,0.895
			s-0.895-0.4-0.895-0.895V8.745c0-0.494,0.4-0.895,0.895-0.895s0.895,0.4,0.895,0.895V16.583L99.399,16.583z"/>
		<polygon fill-rule="evenodd" clip-rule="evenodd" fill="#98D7DA" points="48.491,31.966 55.172,31.966 55.172,43.093 
			48.491,43.093 48.491,31.966 		"/>
		<polygon fill-rule="evenodd" clip-rule="evenodd" fill="#98D7DA" points="48.491,60.233 55.172,60.233 55.172,80.964 
			48.491,80.964 48.491,60.233 		"/>
		<polygon fill-rule="evenodd" clip-rule="evenodd" fill="#98D7DA" points="80.021,60.233 86.702,60.233 86.702,80.964 
			80.021,80.964 80.021,60.233 		"/>
		<polygon fill-rule="evenodd" clip-rule="evenodd" fill="#98D7DA" points="94.007,60.233 100.687,60.233 100.687,80.964 
			94.007,80.964 94.007,60.233 		"/>
		<polygon fill-rule="evenodd" clip-rule="evenodd" fill="#98D7DA" points="77.486,136.708 103.22,136.708 103.22,139.956 
			77.486,139.956 77.486,136.708 		"/>
		<path fill="#432D61" d="M30.753,146.696c0,0.494-0.401,0.895-0.895,0.895c-0.495,0-0.896-0.4-0.896-0.895v-16.277h-0.902
			c-0.495,0-0.896-0.4-0.896-0.895v-3.371c0-0.494,0.4-0.896,0.896-0.896h0.902V88.563v-2.135h-0.902
			c-0.495,0-0.896-0.402-0.896-0.896v-4.568c0-0.494,0.4-0.895,0.896-0.895h0.902V48.558h-0.902c-0.495,0-0.896-0.4-0.896-0.895
			v-4.57c0-0.494,0.4-0.895,0.896-0.895h0.902v-4.547V3.304c0-0.494,0.4-0.895,0.896-0.895h6.62c0.494,0,0.896,0.4,0.896,0.895
			v4.547h47.33l3.609-5.064c0.285-0.402,0.842-0.496,1.244-0.209c0.09,0.063,0.162,0.139,0.221,0.223l3.598,5.051h19.25V3.304
			c0-0.494,0.402-0.895,0.896-0.895h6.619c0.496,0,0.896,0.4,0.896,0.895v34.348v4.547h0.902c0.494,0,0.895,0.4,0.895,0.895v4.57
			c0,0.494-0.4,0.895-0.895,0.895h-0.902v2.135v29.377h0.902c0.494,0,0.895,0.4,0.895,0.895v4.568c0,0.494-0.4,0.896-0.895,0.896
			h-0.902v2.135v36.693h0.902c0.494,0,0.895,0.402,0.895,0.896v3.371c0,0.494-0.4,0.895-0.895,0.895h-0.902v16.277
			c0,0.494-0.4,0.895-0.896,0.895c-0.494,0-0.895-0.4-0.895-0.895v-16.277h-3.928h-0.902v16.277c0,0.494-0.4,0.895-0.895,0.895
			s-0.896-0.4-0.896-0.895v-16.277H65.453v16.277c0,0.494-0.4,0.895-0.895,0.895c-0.495,0-0.896-0.4-0.896-0.895v-17.172v-2.477
			h-3.112v2.477v3.609v3.371v3.451v3.449v3.291c0,0.494-0.401,0.895-0.896,0.895s-0.896-0.4-0.896-0.895v-2.395H42.277v2.395
			c0,0.494-0.401,0.895-0.896,0.895s-0.896-0.4-0.896-0.895v-3.291v-3.449v-3.451v-3.371v-3.609v-2.477h-3.112v2.477v17.172
			c0,0.494-0.401,0.895-0.896,0.895s-0.896-0.4-0.896-0.895v-16.277h-4.83V146.696L30.753,146.696z M94.653,9.64l17.973,25.219V9.64
			H94.653L94.653,9.64z M92.229,9.315c-0.027-0.033-0.053-0.068-0.076-0.105L89.04,4.843l-3.111,4.365
			c-0.023,0.039-0.049,0.074-0.078,0.109L65.453,37.935v4.264h7.238c0.494,0,0.896,0.4,0.896,0.895v4.57
			c0,0.494-0.401,0.895-0.896,0.895h-0.902v2.135c0,0.494-0.401,0.895-0.896,0.895h-5.44v28.482h11.045v-23.41
			c0-0.494,0.401-0.895,0.896-0.895h9.309c0.494,0,0.895,0.4,0.895,0.895v16.457v6.953h2.887v-23.41
			c0-0.494,0.402-0.895,0.896-0.895h9.307c0.494,0,0.895,0.4,0.895,0.895v16.457v6.953h11.045V51.587h-5.439
			c-0.494,0-0.895-0.4-0.895-0.895v-2.135h-0.902c-0.496,0-0.896-0.4-0.896-0.895v-4.57c0-0.494,0.4-0.895,0.896-0.895h7.236v-4.264
			L92.229,9.315L92.229,9.315z M37.374,9.64v28.012v4.547h4.191V24.616c0-0.496,0.401-0.896,0.896-0.896h16.115
			c0.494,0,0.895,0.4,0.895,0.896v17.582h3.29h0.902v-4.547c0-0.217,0.078-0.416,0.207-0.572L83.427,9.64H37.374L37.374,9.64z
			 M114.417,36.757h4.83V4.198h-4.83v4.547V36.757L114.417,36.757z M119.247,38.548h-4.83v3.65h0.902h3.928V38.548L119.247,38.548z
			 M30.753,36.757h4.83V8.745V4.198h-4.83V36.757L30.753,36.757z M35.583,38.548h-4.83v3.65h4.83V38.548L35.583,38.548z
			 M44.97,42.198V28.392c0-0.494,0.401-0.895,0.896-0.895h9.307c0.495,0,0.896,0.4,0.896,0.895v13.807h1.613V25.511H43.355v16.688
			H44.97L44.97,42.198z M54.277,42.198v-12.91H46.76v12.91H54.277L54.277,42.198z M94.782,48.558H83.298
			c-0.494,0-0.895-0.4-0.895-0.895v-4.57c0-0.494,0.4-0.895,0.895-0.895h1.449V28.015v-0.021c0.006-1.176,0.484-2.242,1.258-3.016
			c0.777-0.777,1.85-1.258,3.035-1.258s2.26,0.48,3.035,1.258c0.02,0.018,0.035,0.037,0.053,0.055
			c0.746,0.775,1.205,1.826,1.205,2.982v14.184h1.449c0.494,0,0.895,0.4,0.895,0.895v4.57
			C95.677,48.157,95.276,48.558,94.782,48.558L94.782,48.558z M86.536,42.198h5.008V28.015c0-0.676-0.264-1.285-0.691-1.732
			c-0.016-0.012-0.029-0.025-0.043-0.039c-0.451-0.453-1.078-0.732-1.77-0.732s-1.316,0.279-1.77,0.732s-0.734,1.08-0.734,1.771
			v0.012V42.198L86.536,42.198z M84.194,46.767h9.693v-2.777h-1.449h-6.797h-1.447V46.767L84.194,46.767z M84.747,27.993
			c0.01-0.484,0.406-0.875,0.895-0.875L84.747,27.993L84.747,27.993z M69.999,49.798v-1.24h-7.238H30.753v1.24h33.806H69.999
			L69.999,49.798z M63.663,51.587h-32.91v28.482H44.97v-23.41c0-0.494,0.4-0.895,0.895-0.895h9.308c0.494,0,0.896,0.4,0.896,0.895
			v16.457v6.953h6.693h0.902V51.587L63.663,51.587z M108.081,48.558v1.24h5.441h5.725v-1.24h-3.928H108.081L108.081,48.558z
			 M119.247,51.587h-4.83v28.482h0.902h3.928V51.587L119.247,51.587z M114.425,46.767v-2.777h-0.902h-7.238v2.777h0.902H114.425
			L114.425,46.767z M116.216,43.989v2.777h3.926h0.904v-2.777h-0.904H116.216L116.216,43.989z M61.865,46.767v-2.777h-3.289h-3.404
			h-9.307h-3.404h-5.982h-6.62h-0.903v2.777h0.903H61.865L61.865,46.767z M63.656,43.989v2.777h7.237h0.903v-2.777h-7.238H63.656
			L63.656,43.989z M99.792,74.011h-7.518v6.059h7.518V74.011L99.792,74.011z M92.274,72.222h7.518V57.556h-7.518V72.222
			L92.274,72.222z M85.806,74.011h-7.518v6.059h7.518V74.011L85.806,74.011z M78.288,72.222h7.518V57.556h-7.518V72.222
			L78.288,72.222z M54.277,74.011H46.76v6.059h7.518V74.011L54.277,74.011z M46.76,72.222h7.518V57.556H46.76V72.222L46.76,72.222z
			 M61.865,84.638v-2.779h-6.693h-9.308H29.858h-0.903v2.779h0.903H61.865L61.865,84.638z M63.656,81.858v2.779h50.769v-2.779
			h-0.902h-12.836H91.38h-4.678h-9.309H64.559H63.656L63.656,81.858z M116.216,81.858v2.779h3.926h0.904v-2.779h-0.904H116.216
			L116.216,81.858z M30.753,86.429v1.24h33.806h48.964h5.725v-1.24h-3.928H62.761H30.753L30.753,86.429z M74.86,95.972H83.3h11.482
			h8.438c0.494,0,0.895,0.4,0.895,0.895v16.457v7.848c0,0.494-0.4,0.895-0.895,0.895h-8.438H83.3H74.86
			c-0.495,0-0.896-0.4-0.896-0.895V96.866C73.965,96.372,74.365,95.972,74.86,95.972L74.86,95.972z M82.403,120.276v-6.059h-6.648
			v6.059H82.403L82.403,120.276z M82.403,112.429V97.763h-6.648v14.666H82.403L82.403,112.429z M84.194,97.763v14.666h9.691V97.763
			H84.194L84.194,97.763z M84.194,114.218v6.059h9.691v-6.059H84.194L84.194,114.218z M95.677,97.763v14.666h6.648V97.763H95.677
			L95.677,97.763z M95.677,114.218v6.059h6.648v-6.059H95.677L95.677,114.218z M42.952,97.737c1-1.291,2.147-2.256,3.382-2.906
			c1.324-0.699,2.742-1.039,4.185-1.039s2.86,0.34,4.185,1.039c1.224,0.645,2.362,1.6,3.357,2.875
			c0.152,0.16,0.246,0.377,0.246,0.617v26.934h1.349h4.008V89.458h-32.91v35.799h5.714h0.012h0.012h4.892h1.351V98.323
			C42.732,98.099,42.815,97.894,42.952,97.737L42.952,97.737z M56.517,98.626c-0.795-0.977-1.69-1.711-2.646-2.215
			c-1.057-0.557-2.193-0.828-3.353-0.828s-2.296,0.271-3.353,0.828c-0.956,0.506-1.854,1.242-2.649,2.219v26.627h12V98.626
			L56.517,98.626z M119.247,89.458h-4.83v35.799h0.902h3.928V89.458L119.247,89.458z M65.453,89.458v35.799h47.173V89.458H65.453
			L65.453,89.458z M93.886,139.06v-5.029h-9.691v5.029H93.886L93.886,139.06z M95.677,134.03v5.029h6.648v-5.029H95.677
			L95.677,134.03z M74.859,132.239h8.44h11.482h8.438c0.494,0,0.895,0.4,0.895,0.895v6.822c0,0.492-0.4,0.895-0.895,0.895h-8.438
			H83.3h-8.44c-0.494,0-0.895-0.402-0.895-0.895v-6.822C73.965,132.64,74.365,132.239,74.859,132.239L74.859,132.239z
			 M82.403,134.03h-6.648v5.029h6.648V134.03L82.403,134.03z M114.425,128.628v-1.58h-0.902H65.453v1.58h48.069H114.425
			L114.425,128.628z M116.216,127.048v1.58h3.926h0.904v-1.58h-0.904H116.216L116.216,127.048z M58.76,127.048h-1.348H42.277v1.58
			H58.76V127.048L58.76,127.048z M58.76,130.419H42.277v1.82H58.76V130.419L58.76,130.419z M58.76,134.03H42.277v1.58H58.76V134.03
			L58.76,134.03z M58.76,137.399H42.277v1.66H58.76V137.399L58.76,137.399z M58.76,140.851H42.277v1.66H58.76V140.851L58.76,140.851
			z M35.583,127.048h-5.725h-0.903v1.58h0.903h5.725V127.048L35.583,127.048z"/>
	</g>
</g>
<g id="Layer_2" display="none">
</g>
</svg>
