<?xml version="1.0" encoding="utf-8"?>
<!-- Generator: Adobe Illustrator 16.0.0, SVG Export Plug-In . SVG Version: 6.00 Build 0)  -->
<!DOCTYPE svg PUBLIC "-//W3C//DTD SVG 1.1//EN" "http://www.w3.org/Graphics/SVG/1.1/DTD/svg11.dtd">
<svg version="1.1" xmlns="http://www.w3.org/2000/svg" xmlns:xlink="http://www.w3.org/1999/xlink" x="0px" y="0px" width="150px"
	 height="150px" viewBox="0 0 150 150" enable-background="new 0 0 150 150" xml:space="preserve">
<g id="Layer_1">
	<g>
		<path fill="#98D7DA" d="M99.607,19.333h-1c-0.509,0-1.145,0.188-1.637,0.249c5.918,0.74,10.363,5.924,10.363,12.042v16
			c0,6.118-4.445,11.011-10.363,11.751c0.492,0.062,1.128-0.042,1.637-0.042h1c6.627,0,11.726-5.082,11.726-11.709v-16
			C111.333,24.997,106.234,19.333,99.607,19.333z"/>
		<polygon fill="#98D7DA" points="69.333,145.333 47.333,145.333 47.333,41.333 69.333,41.333 69.333,57.583 		"/>
		<polygon fill="#DEF6F7" points="68.333,67.624 46.333,95.624 46.333,85.624 68.333,57.624 68.333,59.04 		"/>
		<polygon fill="#DEF6F7" points="68.333,53.624 46.333,81.624 46.333,71.624 68.333,43.624 68.333,45.04 		"/>
		<path fill="#FFFFFF" d="M72.24,74.175c0,0-13.71,0.199-15.299,11.723s-5.563,41.129,4.371,42.32s23.048-4.371,23.048-4.371"/>
		<g>
			<polyline fill="none" stroke="#432D61" stroke-width="2.38" stroke-linecap="round" stroke-miterlimit="10" points="
				23.912,147.657 23.912,40.941 69.324,40.941 69.324,68.188 			"/>
			
				<line fill="none" stroke="#432D61" stroke-width="2.38" stroke-linecap="round" stroke-miterlimit="10" x1="30.726" y1="136.304" x2="62.513" y2="136.304"/>
			
				<line fill="none" stroke="#432D61" stroke-width="2.38" stroke-linecap="round" stroke-miterlimit="10" x1="55.7" y1="145.387" x2="55.7" y2="136.304"/>
			
				<line fill="none" stroke="#432D61" stroke-width="2.38" stroke-linecap="round" stroke-miterlimit="10" x1="46.619" y1="145.387" x2="46.619" y2="136.304"/>
			
				<line fill="none" stroke="#432D61" stroke-width="2.38" stroke-linecap="round" stroke-miterlimit="10" x1="37.536" y1="145.387" x2="37.536" y2="136.304"/>
			
				<line fill="none" stroke="#432D61" stroke-width="2.38" stroke-linecap="round" stroke-miterlimit="10" x1="37.536" y1="52.295" x2="37.536" y2="124.952"/>
			
				<line fill="none" stroke="#432D61" stroke-width="2.38" stroke-linecap="round" stroke-miterlimit="10" x1="46.619" y1="52.295" x2="46.619" y2="124.952"/>
			
				<line fill="none" stroke="#432D61" stroke-width="2.38" stroke-linecap="round" stroke-miterlimit="10" x1="55.7" y1="52.295" x2="55.7" y2="72.729"/>
			<path fill="none" stroke="#432D61" stroke-width="2.38" stroke-linecap="round" stroke-miterlimit="10" d="M28.454,40.941
				c0-4.54,0-9.081,0-9.081h36.328v9.081"/>
			<path fill="none" stroke="#432D61" stroke-width="2.38" stroke-linecap="round" stroke-miterlimit="10" d="M35.266,31.86
				c0-4.541,0-9.082,0-9.082h22.705v9.082"/>
			<path fill="none" stroke="#432D61" stroke-width="2.38" stroke-linecap="round" stroke-miterlimit="10" d="M39.807,22.778
				c0-4.542,0-9.082,0-9.082h13.624v9.082"/>
			
				<line fill="none" stroke="#432D61" stroke-width="2.38" stroke-linecap="round" stroke-miterlimit="10" x1="46.619" y1="2.343" x2="46.619" y2="13.696"/>
			<g>
				
					<line fill="none" stroke="#432D61" stroke-width="2.38" stroke-linecap="round" stroke-miterlimit="10" x1="121.487" y1="127.222" x2="121.487" y2="147.657"/>
				<path fill="none" stroke="#432D61" stroke-width="2.38" stroke-linecap="round" stroke-miterlimit="10" d="M106.479,56.086
					v12.765l22.21,6.79c3.766,1.151,6.486,4.429,6.928,8.339l1.822,14.9v21.324c0,4.65-3.77,8.419-8.419,8.419l0,0
					c-3.191,0-36.991-8.213-36.991-8.213"/>
				<path fill="none" stroke="#432D61" stroke-width="2.38" stroke-linecap="round" stroke-miterlimit="10" d="M121.546,97.705
					l0.142,15.894h-4.683c-12.239,3.121-50.333,15.024-52.885,15.024l0,0c-4.65,0-8.42-3.769-8.42-8.419V98.88l1.823-14.9
					c0.44-3.91,3.162-7.188,6.927-8.339l22.211-6.79v-8.223l0.068-4.076l-0.883-0.92l0,0c-2.341-2.579-3.916-5.76-4.536-9.187
					l-0.159-0.874c-0.2-1.097-0.302-2.212-0.302-3.328v-6.576v-1.146c0-8.679,7.038-15.716,15.72-15.716l0,0
					c8.675,0,15.711,7.028,15.717,15.706l0.002,1.156v6.752c0,1.118-0.099,2.23-0.299,3.328l-0.159,0.872
					c-0.622,3.427-2.195,6.611-4.537,9.188l0,0c-2.275,2.501-5.187,4.335-8.426,5.307l0,0c-0.647,0.195-1.319,0.299-1.992,0.308
					c-0.748,0.014-1.502-0.088-2.229-0.308"/>
				<polyline fill="none" stroke="#432D61" stroke-width="2.38" stroke-linecap="round" stroke-miterlimit="10" points="
					64.782,111.328 67.053,111.328 85.218,109.059 103.381,106.787 114.734,106.787 				"/>
				<polyline fill="none" stroke="#432D61" stroke-width="2.38" stroke-linecap="round" stroke-miterlimit="10" points="
					86.667,69.085 86.667,77.421 89.763,77.421 95.89,72.77 98.159,72.77 103.391,77.421 106.485,77.421 106.485,69.085 				"/>
				
					<line fill="none" stroke="#432D61" stroke-width="2.38" stroke-linecap="round" stroke-miterlimit="10" x1="96.569" y1="81.812" x2="96.569" y2="102.246"/>
				
					<line fill="none" stroke="#432D61" stroke-width="2.38" stroke-linecap="round" stroke-miterlimit="10" x1="96.569" y1="129.493" x2="96.569" y2="134.033"/>
				
					<line fill="none" stroke="#432D61" stroke-width="2.38" stroke-linecap="round" stroke-miterlimit="10" x1="96.569" y1="138.575" x2="96.569" y2="143.115"/>
				<polyline fill="none" stroke="#432D61" stroke-width="2.38" stroke-linecap="round" stroke-miterlimit="10" points="
					71.594,127.222 71.594,145.387 12.561,145.387 				"/>
			</g>
			
				<line fill="none" stroke="#432D61" stroke-width="2.38" stroke-linecap="round" stroke-miterlimit="10" x1="71.594" y1="97.705" x2="71.735" y2="111.328"/>
		</g>
	</g>
</g>
<g id="Layer_2" display="none">
</g>
</svg>
