<?xml version="1.0" encoding="utf-8"?>
<!-- Generator: Adobe Illustrator 16.0.0, SVG Export Plug-In . SVG Version: 6.00 Build 0)  -->
<!DOCTYPE svg PUBLIC "-//W3C//DTD SVG 1.1//EN" "http://www.w3.org/Graphics/SVG/1.1/DTD/svg11.dtd">
<svg version="1.1" xmlns="http://www.w3.org/2000/svg" xmlns:xlink="http://www.w3.org/1999/xlink" x="0px" y="0px" width="45px"
	 height="45px" viewBox="0 0 45 45" enable-background="new 0 0 45 45" xml:space="preserve">
<g id="Layer_1">
	<g>
		<g>
			<g>
				<path fill="#273A96" d="M34.524,39.393H10.475c-1.721,0-3.121-1.4-3.121-3.123V18.741c0-0.39,0.168-0.759,0.466-1.01
					l13.878-11.81c0.499-0.423,1.227-0.419,1.72,0.006l13.768,11.808c0.292,0.249,0.461,0.616,0.461,1.006V36.27
					C37.646,37.992,36.245,39.393,34.524,39.393L34.524,39.393z M10.001,19.351V36.27c0,0.262,0.212,0.475,0.474,0.475h24.049
					c0.262,0,0.475-0.213,0.475-0.475V19.347L22.553,8.676L10.001,19.351L10.001,19.351z"/>
			</g>
			<g>
				<path fill="#273A96" d="M34.524,38.729H10.475c-1.012,0-1.936-0.637-2.295-1.591c-0.097-0.254-0.024-0.545,0.18-0.727
					l13.7-12.218c0.25-0.227,0.631-0.227,0.879,0l13.702,12.218c0.203,0.182,0.275,0.473,0.181,0.727
					C36.461,38.093,35.536,38.729,34.524,38.729L34.524,38.729z M9.645,37.039c0.211,0.228,0.51,0.367,0.83,0.367h24.049
					c0.32,0,0.62-0.14,0.831-0.367L22.5,25.575L9.645,37.039L9.645,37.039z"/>
			</g>
			<g>
				<g>
					<path fill="#273A96" d="M26.718,29.021c-0.185,0-0.363-0.077-0.494-0.223c-0.244-0.272-0.22-0.691,0.052-0.934l9.484-8.457
						c0.273-0.244,0.691-0.222,0.936,0.054c0.241,0.271,0.219,0.69-0.055,0.933l-9.482,8.458
						C27.03,28.964,26.875,29.021,26.718,29.021L26.718,29.021z"/>
				</g>
				<g>
					<path fill="#273A96" d="M18.356,29.085c-0.158,0-0.313-0.057-0.443-0.166L8.36,20.395c-0.274-0.242-0.298-0.661-0.055-0.933
						c0.24-0.275,0.659-0.298,0.935-0.054l9.557,8.521c0.272,0.243,0.296,0.664,0.053,0.937
						C18.716,29.01,18.537,29.085,18.356,29.085L18.356,29.085z"/>
				</g>
			</g>
			<g>
				<g>
					<path fill="#273A96" d="M26.141,18.718c-0.34,0-0.677-0.125-0.935-0.387L22.5,15.627l-2.705,2.704
						c-0.518,0.52-1.354,0.52-1.872,0c-0.518-0.517-0.518-1.355,0-1.873l3.642-3.634c0.516-0.52,1.357-0.52,1.872,0l3.642,3.634
						c0.517,0.518,0.517,1.356,0,1.873C26.817,18.593,26.48,18.718,26.141,18.718L26.141,18.718z"/>
				</g>
				<g>
					<path fill="#273A96" d="M22.5,22.594c-0.731,0-1.323-0.59-1.323-1.323v-6.522c0-0.731,0.592-1.325,1.323-1.325
						s1.323,0.594,1.323,1.325v6.522C23.823,22.004,23.231,22.594,22.5,22.594L22.5,22.594z"/>
				</g>
			</g>
		</g>
	</g>
</g>
<g id="Layer_2" display="none">
</g>
</svg>
