<?xml version="1.0" encoding="utf-8"?>
<!-- Generator: Adobe Illustrator 16.0.0, SVG Export Plug-In . SVG Version: 6.00 Build 0)  -->
<!DOCTYPE svg PUBLIC "-//W3C//DTD SVG 1.1//EN" "http://www.w3.org/Graphics/SVG/1.1/DTD/svg11.dtd">
<svg version="1.1" xmlns="http://www.w3.org/2000/svg" xmlns:xlink="http://www.w3.org/1999/xlink" x="0px" y="0px" width="45px"
	 height="45px" viewBox="0 0 45 45" enable-background="new 0 0 45 45" xml:space="preserve">
<g id="Layer_1">
	<g>
		<g>
			<g>
				<path fill="#273A96" d="M31.771,38.39H13.233c-0.732,0-1.327-0.596-1.327-1.327V7.935c0-0.732,0.595-1.324,1.327-1.324h18.537
					c0.729,0,1.323,0.592,1.323,1.324v29.128C33.094,37.794,32.5,38.39,31.771,38.39L31.771,38.39z M14.557,35.739h15.887V9.261
					H14.557V35.739L14.557,35.739z"/>
			</g>
			<g>
				<path fill="#273A96" d="M29.121,29.78H15.877c-0.363,0-0.657-0.301-0.657-0.663V12.35c0-0.367,0.294-0.663,0.657-0.663h13.244
					c0.365,0,0.665,0.296,0.665,0.663v16.768C29.786,29.479,29.486,29.78,29.121,29.78L29.121,29.78z M16.543,28.452h11.918V13.01
					H16.543V28.452L16.543,28.452z"/>
			</g>
			<path fill="#273A96" d="M24.071,32.733c0,0.867-0.705,1.574-1.569,1.574c-0.874,0-1.573-0.707-1.573-1.574
				c0-0.869,0.699-1.572,1.573-1.572C23.366,31.161,24.071,31.864,24.071,32.733z"/>
		</g>
	</g>
</g>
<g id="Layer_2" display="none">
</g>
</svg>
