<?xml version="1.0" encoding="utf-8"?>
<!-- Generator: Adobe Illustrator 16.0.0, SVG Export Plug-In . SVG Version: 6.00 Build 0)  -->
<!DOCTYPE svg PUBLIC "-//W3C//DTD SVG 1.1//EN" "http://www.w3.org/Graphics/SVG/1.1/DTD/svg11.dtd">
<svg version="1.1" xmlns="http://www.w3.org/2000/svg" xmlns:xlink="http://www.w3.org/1999/xlink" x="0px" y="0px" width="150px"
	 height="150px" viewBox="0 0 150 150" enable-background="new 0 0 150 150" xml:space="preserve">
<g id="Layer_1">
	<g>
		<polygon fill-rule="evenodd" clip-rule="evenodd" fill="#FFFFFF" points="78.562,17.574 127.305,17.574 127.305,139.893 
			35.28,139.893 35.28,109.518 27.922,109.518 27.922,139.752 24.856,139.752 24.856,109.518 21.699,109.518 21.699,92.227 
			35.28,92.227 35.28,10.107 78.562,10.107 78.562,17.574 		"/>
		<path fill="#98D7DA" d="M63.131,83.865c0.494,0,0.896,0.402,0.896,0.896s-0.401,0.895-0.896,0.895H50.929
			c-0.495,0-0.896-0.4-0.896-0.895s0.4-0.896,0.896-0.896H63.131L63.131,83.865z M39.652,31.609c0.494,0,0.895,0.4,0.895,0.895
			s-0.4,0.896-0.895,0.896H35.28c-0.494,0-0.895-0.402-0.895-0.896s0.4-0.895,0.895-0.895H39.652L39.652,31.609z M39.652,39.074
			c0.494,0,0.895,0.4,0.895,0.895s-0.4,0.896-0.895,0.896H35.28c-0.494,0-0.895-0.402-0.895-0.896s0.4-0.895,0.895-0.895H39.652
			L39.652,39.074z M39.652,46.539c0.494,0,0.895,0.4,0.895,0.896c0,0.492-0.4,0.895-0.895,0.895H35.28
			c-0.494,0-0.895-0.402-0.895-0.895c0-0.496,0.4-0.896,0.895-0.896H39.652L39.652,46.539z M39.652,54.004
			c0.494,0,0.895,0.402,0.895,0.896s-0.4,0.895-0.895,0.895H35.28c-0.494,0-0.895-0.4-0.895-0.895s0.4-0.896,0.895-0.896H39.652
			L39.652,54.004z M39.652,61.471c0.494,0,0.895,0.4,0.895,0.895s-0.4,0.895-0.895,0.895H35.28c-0.494,0-0.895-0.4-0.895-0.895
			s0.4-0.895,0.895-0.895H39.652L39.652,61.471z M39.652,68.936c0.494,0,0.895,0.4,0.895,0.895s-0.4,0.896-0.895,0.896H35.28
			c-0.494,0-0.895-0.402-0.895-0.896s0.4-0.895,0.895-0.895H39.652L39.652,68.936z M39.652,76.4c0.494,0,0.895,0.4,0.895,0.896
			c0,0.494-0.4,0.895-0.895,0.895H35.28c-0.494,0-0.895-0.4-0.895-0.895c0-0.496,0.4-0.896,0.895-0.896H39.652L39.652,76.4z
			 M39.652,83.865c0.494,0,0.895,0.402,0.895,0.896s-0.4,0.895-0.895,0.895H35.28c-0.494,0-0.895-0.4-0.895-0.895
			s0.4-0.896,0.895-0.896H39.652L39.652,83.865z M63.131,16.678c0.494,0,0.896,0.402,0.896,0.896s-0.401,0.895-0.896,0.895H35.28
			c-0.494,0-0.895-0.4-0.895-0.895s0.4-0.896,0.895-0.896H63.131L63.131,16.678z M63.131,24.145c0.494,0,0.896,0.4,0.896,0.895
			s-0.401,0.895-0.896,0.895H35.28c-0.494,0-0.895-0.4-0.895-0.895s0.4-0.895,0.895-0.895H63.131L63.131,24.145z M63.131,31.609
			c0.494,0,0.896,0.4,0.896,0.895S63.625,33.4,63.131,33.4H50.929c-0.495,0-0.896-0.402-0.896-0.896s0.4-0.895,0.896-0.895H63.131
			L63.131,31.609z M63.131,39.074c0.494,0,0.896,0.4,0.896,0.895s-0.401,0.896-0.896,0.896H50.929c-0.495,0-0.896-0.402-0.896-0.896
			s0.4-0.895,0.896-0.895H63.131L63.131,39.074z M63.131,46.539c0.494,0,0.896,0.4,0.896,0.896c0,0.492-0.401,0.895-0.896,0.895
			H50.929c-0.495,0-0.896-0.402-0.896-0.895c0-0.496,0.4-0.896,0.896-0.896H63.131L63.131,46.539z M63.131,54.004
			c0.494,0,0.896,0.402,0.896,0.896s-0.401,0.895-0.896,0.895H50.929c-0.495,0-0.896-0.4-0.896-0.895s0.4-0.896,0.896-0.896H63.131
			L63.131,54.004z M63.131,61.471c0.494,0,0.896,0.4,0.896,0.895s-0.401,0.895-0.896,0.895H50.929c-0.495,0-0.896-0.4-0.896-0.895
			s0.4-0.895,0.896-0.895H63.131L63.131,61.471z M63.131,68.936c0.494,0,0.896,0.4,0.896,0.895s-0.401,0.896-0.896,0.896H50.929
			c-0.495,0-0.896-0.402-0.896-0.896s0.4-0.895,0.896-0.895H63.131L63.131,68.936z M63.131,76.4c0.494,0,0.896,0.4,0.896,0.896
			c0,0.494-0.401,0.895-0.896,0.895H50.929c-0.495,0-0.896-0.4-0.896-0.895c0-0.496,0.4-0.896,0.896-0.896H63.131L63.131,76.4z"/>
		<polygon fill-rule="evenodd" clip-rule="evenodd" fill="#98D7DA" points="115.42,109.518 115.42,114.801 50.929,114.801 
			50.929,139.893 42.159,139.893 42.159,114.801 35.28,114.801 35.28,109.518 115.42,109.518 		"/>
		<polygon fill-rule="evenodd" clip-rule="evenodd" fill="#98D7DA" points="42.159,35.914 50.929,35.914 50.929,92.227 
			42.159,92.227 42.159,35.914 		"/>
		<polygon fill-rule="evenodd" clip-rule="evenodd" fill="#98D7DA" points="81.068,35.914 115.42,35.914 115.42,106.225 
			81.068,106.225 81.068,35.914 		"/>
		<polygon fill-rule="evenodd" clip-rule="evenodd" fill="#DEF6F7" points="81.068,91.934 115.42,72.09 115.42,81.551 
			81.068,101.395 81.068,91.934 		"/>
		<polygon fill-rule="evenodd" clip-rule="evenodd" fill="#DEF6F7" points="81.068,104.088 115.42,84.244 115.42,89.674 
			86.769,106.225 81.068,106.225 81.068,104.088 		"/>
		<path fill="#432D61" d="M40.547,139.893c0,0.494-0.4,0.895-0.895,0.895c-0.495,0-0.896-0.4-0.896-0.895v-3.291v-19.49v-6.699
			h-2.581v29.48c0,0.494-0.401,0.895-0.896,0.895s-0.895-0.4-0.895-0.895v-29.48h-5.568v29.48c0,0.494-0.401,0.895-0.896,0.895
			s-0.896-0.4-0.896-0.895v-29.48h-1.275v29.48c0,0.494-0.4,0.895-0.895,0.895s-0.895-0.4-0.895-0.895v-29.48h-2.263
			c-0.494,0-0.896-0.4-0.896-0.895V92.227c0-0.494,0.401-0.895,0.896-0.895h12.687V10.107c0-0.494,0.4-0.895,0.895-0.895h43.281
			c0.494,0,0.895,0.4,0.895,0.895v6.57h47.849c0.494,0,0.896,0.402,0.896,0.896v122.318c0,0.494-0.401,0.895-0.896,0.895
			s-0.895-0.4-0.895-0.895V18.469H78.562H67.457v73.758c0,0.494-0.4,0.895-0.895,0.895H50.929H39.652H35.28H22.595v15.5h2.25h0.012
			h0.012h3.042h0.012h0.011h7.348h4.359h0.013h0.011h11.254h0.012h0.011h27.61h0.012h0.012h36.847c0.494,0,0.896,0.402,0.896,0.896
			v7.582v0.012v0.012v15.164v0.012v0.012v7.582c0,0.494-0.401,0.895-0.896,0.895s-0.896-0.4-0.896-0.895v-6.699H79.456v6.699
			c0,0.494-0.4,0.895-0.895,0.895s-0.896-0.4-0.896-0.895v-7.594v-7.594v-7.594v-6.699H51.823v6.699v19.49v3.291
			c0,0.494-0.4,0.895-0.895,0.895c-0.495,0-0.896-0.4-0.896-0.895v-2.395h-9.486V139.893L40.547,139.893z M115.42,107.119h-7.435
			H85.996h-7.435c-0.494,0-0.896-0.4-0.896-0.895V69.83v-7.465V32.504c0-0.494,0.401-0.895,0.896-0.895h7.435h21.989h7.435
			c0.494,0,0.896,0.4,0.896,0.895v37.303v0.023v0.023v22.373v13.998C116.315,106.719,115.914,107.119,115.42,107.119L115.42,107.119
			z M79.456,105.33h5.645V70.727h-5.645V105.33L79.456,105.33z M86.892,105.33h20.198V92.227v-21.5H86.892V105.33L86.892,105.33z
			 M108.88,105.33h5.645V93.121h-5.645V105.33L108.88,105.33z M114.524,91.332V70.727h-5.645v20.605H114.524L114.524,91.332z
			 M114.524,68.936V33.4h-5.645v28.965v6.57H114.524L114.524,68.936z M107.09,33.4H86.892v28.07h20.198V33.4L107.09,33.4z
			 M85.101,33.4h-5.645v28.07h5.645V33.4L85.101,33.4z M79.456,63.26v5.676h5.645V63.26H79.456L79.456,63.26z M107.09,63.26H86.892
			v5.676h20.198V63.26L107.09,63.26z M38.757,91.332V62.365V32.504c0-0.494,0.4-0.895,0.896-0.895h11.276
			c0.494,0,0.895,0.4,0.895,0.895v29.861v28.967h13.844V17.574c0-0.494,0.401-0.896,0.896-0.896h11.104v-5.674h-41.49v80.328H38.757
			L38.757,91.332z M50.033,91.332V63.26h-9.486v28.072H50.033L50.033,91.332z M50.033,61.471V33.4h-9.486v28.07H50.033
			L50.033,61.471z M114.524,131.404V125.6H79.456v5.805H114.524L114.524,131.404z M114.524,123.811v-5.805H79.456v5.805H114.524
			L114.524,123.811z M114.524,116.215v-5.803H79.456v5.803H114.524L114.524,116.215z M40.547,110.412v5.803h9.486v-5.803H40.547
			L40.547,110.412z M54.944,118.006c-0.494,0-0.895-0.4-0.895-0.895s0.4-0.896,0.895-0.896h1.691c0.495,0,0.896,0.402,0.896,0.896
			v6.957c0,0.494-0.4,0.896-0.896,0.896c-0.494,0-0.895-0.402-0.895-0.896v-6.063H54.944L54.944,118.006z M64.131,118.006
			c-0.495,0-0.896-0.4-0.896-0.895s0.4-0.896,0.896-0.896h2.432c0.494,0,0.895,0.402,0.895,0.896c0,0.092-0.014,0.182-0.04,0.266
			l-1.731,6.908c-0.12,0.48-0.605,0.771-1.085,0.65c-0.479-0.119-0.77-0.604-0.65-1.084l1.466-5.846H64.131L64.131,118.006z
			 M60.08,116.215h1.281c0.403,0,0.77,0.166,1.036,0.432l0.001,0.002l0.002-0.002c0.267,0.266,0.431,0.635,0.431,1.039v5.809
			c0,0.406-0.164,0.773-0.431,1.039s-0.634,0.432-1.039,0.432H60.08c-0.405,0-0.773-0.166-1.039-0.432
			c-0.024-0.025-0.048-0.051-0.069-0.076c-0.225-0.26-0.362-0.596-0.362-0.963v-5.809c0-0.402,0.165-0.77,0.432-1.035l0.001-0.002
			l-0.001-0.002C59.307,116.381,59.675,116.215,60.08,116.215L60.08,116.215z M61.041,118.006h-0.642v5.168h0.642V118.006
			L61.041,118.006z M50.033,135.707v-17.701h-9.486v17.701H50.033L50.033,135.707z"/>
	</g>
</g>
<g id="Layer_2" display="none">
</g>
</svg>
