<?xml version="1.0" encoding="utf-8"?>
<!-- Generator: Adobe Illustrator 16.0.0, SVG Export Plug-In . SVG Version: 6.00 Build 0)  -->
<!DOCTYPE svg PUBLIC "-//W3C//DTD SVG 1.1//EN" "http://www.w3.org/Graphics/SVG/1.1/DTD/svg11.dtd">
<svg version="1.1" xmlns="http://www.w3.org/2000/svg" xmlns:xlink="http://www.w3.org/1999/xlink" x="0px" y="0px" width="45px"
	 height="45px" viewBox="0 0 45 45" enable-background="new 0 0 45 45" xml:space="preserve">
<g id="Layer_1">
	<g>
		<g>
			<g>
				<path fill="#273A96" d="M30.971,24.874c-0.015-0.007-0.173-0.083-0.404-0.197c-0.233-0.114-0.542-0.263-0.861-0.417
					c-0.321-0.155-0.65-0.314-0.929-0.442c-0.276-0.128-0.498-0.227-0.602-0.264c-0.042-0.016-0.085-0.028-0.128-0.045
					c-0.044-0.016-0.087-0.026-0.133-0.037c-0.045-0.01-0.091-0.02-0.139-0.029c-0.045-0.004-0.092-0.008-0.14-0.008
					c-0.078,0-0.153,0.008-0.226,0.029c-0.07,0.019-0.141,0.047-0.205,0.086c-0.066,0.039-0.129,0.089-0.187,0.146
					c-0.057,0.057-0.113,0.123-0.164,0.201c-0.059,0.086-0.146,0.2-0.247,0.331c-0.102,0.13-0.217,0.272-0.334,0.411
					c-0.115,0.139-0.23,0.275-0.332,0.392c-0.1,0.116-0.184,0.214-0.237,0.276c-0.009,0.008-0.018,0.016-0.024,0.022
					c-0.008,0.009-0.015,0.018-0.023,0.024c-0.008,0.006-0.018,0.012-0.023,0.017c-0.007,0.005-0.015,0.007-0.02,0.007
					c-0.005,0-0.032-0.01-0.071-0.023c-0.038-0.016-0.087-0.035-0.14-0.055c-0.054-0.022-0.11-0.047-0.159-0.066
					c-0.049-0.02-0.092-0.04-0.12-0.049c-0.624-0.271-1.208-0.639-1.738-1.039c-0.531-0.402-1.008-0.843-1.416-1.264
					c-0.41-0.42-0.748-0.82-1-1.142c-0.252-0.324-0.419-0.567-0.483-0.677c-0.008-0.017-0.017-0.029-0.021-0.042
					c-0.007-0.011-0.009-0.02-0.013-0.026c0,0-0.004-0.014-0.004-0.019v-0.005c0.002-0.009,0.009-0.019,0.02-0.033
					c0.008-0.014,0.021-0.029,0.036-0.044c0.013-0.015,0.028-0.032,0.043-0.045c0.013-0.015,0.025-0.026,0.036-0.038
					c0.033-0.033,0.065-0.066,0.097-0.1c0.034-0.037,0.067-0.074,0.1-0.113c0.033-0.038,0.066-0.078,0.101-0.116
					c0.032-0.041,0.066-0.081,0.098-0.121c0.018-0.018,0.032-0.036,0.047-0.058c0.018-0.019,0.033-0.036,0.048-0.057
					c0.017-0.018,0.032-0.033,0.046-0.055c0.016-0.017,0.03-0.035,0.047-0.053c0.047-0.058,0.089-0.109,0.126-0.161
					c0.036-0.048,0.068-0.101,0.096-0.147c0.03-0.045,0.056-0.096,0.082-0.144c0.023-0.05,0.047-0.097,0.072-0.146l0.013-0.026
					l0.013-0.025l0.013-0.027l0.013-0.023c0.06-0.123,0.094-0.239,0.106-0.346c0.013-0.108,0.009-0.207-0.006-0.299
					c-0.016-0.089-0.041-0.164-0.064-0.229c-0.025-0.065-0.051-0.113-0.066-0.148c-0.015-0.027-0.085-0.195-0.188-0.436
					c-0.1-0.243-0.23-0.555-0.363-0.873c-0.133-0.316-0.265-0.641-0.373-0.898c-0.109-0.259-0.188-0.451-0.213-0.515
					c-0.064-0.151-0.133-0.28-0.205-0.392c-0.073-0.109-0.152-0.201-0.238-0.273c-0.085-0.071-0.177-0.125-0.278-0.16
					c-0.101-0.037-0.208-0.053-0.322-0.053c-0.01,0-0.016,0-0.016,0c-0.009,0-0.013,0.002-0.022,0.002c-0.008,0-0.021,0-0.042,0.002
					c-0.023,0-0.053,0.002-0.098,0.004c-0.054,0.002-0.169,0.013-0.319,0.032c-0.15,0.023-0.336,0.052-0.531,0.095
					c-0.194,0.039-0.398,0.091-0.586,0.152c-0.19,0.062-0.361,0.133-0.492,0.217c-0.142,0.086-0.304,0.223-0.471,0.406
					c-0.167,0.186-0.336,0.419-0.488,0.705c-0.154,0.283-0.286,0.619-0.385,1.006c-0.096,0.389-0.157,0.826-0.157,1.318
					c0,0.439,0.071,0.877,0.185,1.293c0.113,0.417,0.268,0.81,0.438,1.17c0.171,0.359,0.355,0.683,0.528,0.956
					c0.173,0.273,0.334,0.497,0.456,0.658c0,0,0.006,0.009,0.011,0.016c0.005,0.005,0.009,0.013,0.015,0.021
					c0.004,0.006,0.01,0.016,0.017,0.025c0.006,0.012,0.015,0.022,0.021,0.035c0.462,0.671,0.952,1.303,1.464,1.883
					c0.514,0.582,1.046,1.114,1.596,1.592c0.548,0.475,1.112,0.898,1.686,1.258c0.574,0.361,1.156,0.661,1.738,0.895
					c0.562,0.223,1.051,0.397,1.477,0.536c0.423,0.136,0.788,0.231,1.098,0.3c0.311,0.068,0.571,0.109,0.792,0.136
					c0.22,0.021,0.4,0.028,0.55,0.028l0,0l0,0l0,0l0,0c0.064,0,0.125-0.002,0.183-0.004c0.057-0.002,0.112-0.004,0.164-0.008
					c0.053-0.004,0.102-0.008,0.152-0.012c0.048-0.005,0.093-0.01,0.139-0.015l0.03-0.003l0.028-0.002l0.027-0.002l0.03-0.003
					c0.192-0.017,0.445-0.085,0.719-0.194c0.276-0.109,0.573-0.262,0.861-0.439c0.286-0.186,0.56-0.399,0.786-0.635
					c0.228-0.235,0.408-0.492,0.503-0.762c0.075-0.211,0.139-0.43,0.186-0.643c0.047-0.211,0.079-0.418,0.096-0.605
					c0.015-0.192,0.018-0.367,0-0.514c-0.015-0.147-0.049-0.269-0.1-0.354c-0.034-0.057-0.076-0.107-0.123-0.153
					c-0.047-0.044-0.1-0.085-0.155-0.124c-0.06-0.037-0.123-0.07-0.189-0.107C31.118,24.946,31.046,24.911,30.971,24.874
					L30.971,24.874L30.971,24.874L30.971,24.874L30.971,24.874z M30.971,24.874"/>
				<path fill="#273A96" d="M23.616,6.585c-2.154,0-4.209,0.436-6.079,1.223c-1.871,0.785-3.555,1.924-4.971,3.329
					c-1.415,1.402-2.56,3.075-3.354,4.931c-0.791,1.855-1.231,3.894-1.231,6.035c0,0.691,0.048,1.38,0.139,2.058
					c0.09,0.681,0.227,1.353,0.407,2.015c0.182,0.659,0.404,1.305,0.672,1.936c0.268,0.631,0.575,1.244,0.926,1.837l-0.672,1.979
					l-0.672,1.979l-0.67,1.981l-0.671,1.98c-0.013,0.035-0.02,0.074-0.022,0.111c-0.001,0.039,0.002,0.078,0.011,0.111
					c0.009,0.039,0.021,0.074,0.039,0.107c0.019,0.031,0.043,0.063,0.068,0.093c0.019,0.02,0.043,0.038,0.064,0.053
					c0.023,0.015,0.048,0.026,0.073,0.038c0.026,0.01,0.051,0.02,0.077,0.023c0.028,0.007,0.053,0.01,0.081,0.01
					c0.011,0,0.021,0,0.032,0c0.011-0.003,0.02-0.005,0.033-0.005c0.008-0.003,0.018-0.005,0.029-0.007
					c0.011-0.002,0.021-0.006,0.03-0.009l2.066-0.657l2.063-0.654l2.065-0.658l2.065-0.656c0.565,0.305,1.149,0.568,1.746,0.801
					c0.599,0.229,1.212,0.42,1.832,0.576c0.623,0.155,1.254,0.27,1.891,0.35c0.641,0.08,1.285,0.121,1.931,0.121
					c2.155,0,4.209-0.435,6.08-1.223c1.868-0.785,3.554-1.924,4.968-3.328c1.415-1.404,2.561-3.076,3.353-4.932
					c0.792-1.854,1.23-3.895,1.23-6.031c0-2.142-0.438-4.18-1.23-6.035s-1.938-3.528-3.353-4.931
					c-1.414-1.405-3.1-2.544-4.968-3.329C27.826,7.021,25.771,6.585,23.616,6.585L23.616,6.585L23.616,6.585L23.616,6.585
					L23.616,6.585z M23.616,34.384c-0.607,0-1.211-0.045-1.806-0.133c-0.594-0.086-1.181-0.216-1.754-0.385
					c-0.571-0.17-1.132-0.383-1.675-0.636c-0.546-0.255-1.073-0.547-1.578-0.878c-0.017-0.011-0.035-0.023-0.054-0.031
					c-0.019-0.007-0.037-0.016-0.056-0.02c-0.019-0.006-0.039-0.011-0.058-0.011c-0.021-0.005-0.041-0.005-0.06-0.005
					c-0.011,0-0.021,0-0.032,0s-0.022,0.003-0.032,0.005c-0.009,0-0.02,0.003-0.03,0.003c-0.011,0.004-0.021,0.006-0.032,0.01
					l-1.034,0.328l-1.034,0.33l-1.036,0.329l-1.034,0.327l0.334-0.984l0.333-0.988l0.333-0.982l0.334-0.984
					c0.011-0.033,0.018-0.064,0.022-0.098c0.002-0.033,0-0.066-0.004-0.1s-0.013-0.063-0.026-0.094
					c-0.013-0.029-0.03-0.061-0.049-0.086c-0.385-0.526-0.725-1.078-1.019-1.646c-0.292-0.572-0.541-1.162-0.737-1.769
					c-0.199-0.604-0.349-1.226-0.451-1.858c-0.1-0.632-0.151-1.275-0.151-1.926c0-1.696,0.35-3.309,0.976-4.779
					c0.627-1.468,1.534-2.792,2.656-3.903c1.121-1.112,2.456-2.013,3.937-2.635c1.481-0.624,3.107-0.968,4.815-0.968
					s3.333,0.344,4.815,0.968c1.48,0.622,2.815,1.522,3.935,2.635c1.121,1.111,2.028,2.436,2.655,3.903
					c0.629,1.471,0.975,3.083,0.975,4.779c0,1.691-0.346,3.305-0.975,4.775c-0.626,1.467-1.535,2.793-2.654,3.905
					c-1.121,1.11-2.457,2.011-3.937,2.632C26.95,34.04,25.324,34.384,23.616,34.384L23.616,34.384L23.616,34.384L23.616,34.384
					L23.616,34.384z M23.616,34.384"/>
			</g>
		</g>
	</g>
</g>
<g id="Layer_2" display="none">
</g>
</svg>
